<svg width="8" height="9" viewBox="0 0 8 9" fill="none" xmlns="http://www.w3.org/2000/svg">
<g clip-path="url(#clip0)">
<path d="M4.57348 8.77305C4.51613 8.82979 4.40143 8.88652 4.34409 8.94326C4.22939 9 4.17204 9 4.05735 9C3.94265 9 3.8853 9 3.77061 8.94326C3.65591 8.88652 3.59857 8.82979 3.54122 8.77305L0.215054 5.48227C-0.0716847 5.19858 -0.0716847 4.74468 0.215054 4.46099C0.501792 4.1773 0.960573 4.1773 1.24731 4.46099L3.31183 6.50355V0.680851C3.31183 0.283688 3.65591 0 4 0C4.34409 0 4.68817 0.340425 4.68817 0.680851V6.50355L6.75269 4.46099C7.03943 4.1773 7.49821 4.1773 7.78495 4.46099C8.07168 4.74468 8.07168 5.19858 7.78495 5.48227L4.57348 8.77305Z" fill="#FF0000"/>
</g>
<defs>
<clipPath id="clip0">
<rect width="8" height="9" fill="white"/>
</clipPath>
</defs>
</svg>
