<svg width="8" height="9" viewBox="0 0 8 9" fill="none" xmlns="http://www.w3.org/2000/svg">
<g clip-path="url(#clip0)">
<path d="M3.42652 0.22695C3.48387 0.17021 3.59857 0.11348 3.65591 0.0567398C3.77061 0 3.82796 0 3.94265 0C4.05735 0 4.1147 0 4.22939 0.0567398C4.34409 0.11348 4.40143 0.17021 4.45878 0.22695L7.78495 3.51773C8.07168 3.80142 8.07168 4.25532 7.78495 4.53901C7.49821 4.8227 7.03943 4.8227 6.75269 4.53901L4.68817 2.49645V8.31915C4.68817 8.71631 4.34409 9 4 9C3.65591 9 3.31183 8.65958 3.31183 8.31915V2.49645L1.24731 4.53901C0.96057 4.8227 0.50179 4.8227 0.21505 4.53901C-0.0716801 4.25532 -0.0716801 3.80142 0.21505 3.51773L3.42652 0.22695Z" fill="#00C853"/>
</g>
<defs>
<clipPath id="clip0">
<rect x="8" y="9" width="8" height="9" transform="rotate(-180 8 9)" fill="white"/>
</clipPath>
</defs>
</svg>
