<svg width="115" height="22" viewBox="0 0 115 22" fill="none" xmlns="http://www.w3.org/2000/svg">
<path fill-rule="evenodd" clip-rule="evenodd" d="M29.2267 8.35266H35.9282V17.9459H35.9769C38.6231 17.9459 40.7685 15.8596 40.7685 13.2858V8.35266H47.6562V4.36963H29.2267V8.35266Z" fill="white"/>
<path fill-rule="evenodd" clip-rule="evenodd" d="M61.3099 13.9649H56.7039C55.0974 13.9649 53.7093 12.767 53.6342 11.2063C53.5545 9.54661 54.9198 8.1713 56.6096 8.1713H61.2154C62.8219 8.1713 64.2103 9.36937 64.2851 10.9299C64.3648 12.59 62.9993 13.9649 61.3099 13.9649ZM62.4482 4.18848H55.4714C51.5806 4.18848 48.3974 7.28431 48.3974 11.0681C48.3974 14.8519 51.5806 17.9479 55.4714 17.9479H62.4482C66.3387 17.9479 69.5222 14.8519 69.5222 11.0681C69.5222 7.28431 66.3387 4.18848 62.4482 4.18848Z" fill="white"/>
<path fill-rule="evenodd" clip-rule="evenodd" d="M105.95 13.9649H101.344C99.7372 13.9649 98.3489 12.767 98.2739 11.2063C98.1942 9.54661 99.5597 8.1713 101.249 8.1713H105.855C107.462 8.1713 108.85 9.36937 108.925 10.9299C109.005 12.59 107.639 13.9649 105.95 13.9649ZM107.088 4.18848H100.111C96.2204 4.18848 93.0372 7.28431 93.0372 11.0681C93.0372 14.8519 96.2204 17.9479 100.111 17.9479H107.088C110.979 17.9479 114.162 14.8519 114.162 11.0681C114.162 7.28431 110.979 4.18848 107.088 4.18848Z" fill="white"/>
<path fill-rule="evenodd" clip-rule="evenodd" d="M85.26 9.27076C85.26 9.96057 84.6794 10.5254 83.9697 10.5254H77.4405V7.99085H83.9697C84.6794 7.99085 85.26 8.55545 85.26 9.24567V9.27076ZM90.1619 9.47678C90.1619 8.12182 89.5926 6.89065 88.6732 5.99605C87.7553 5.10351 86.4891 4.5498 85.0961 4.5498H72.0426V12.2011V14.508V17.7663H77.2545V14.508H82.7647L84.6978 17.7663H90.1619L87.818 13.6261C89.2241 12.7478 90.1619 11.2135 90.1619 9.47678Z" fill="white"/>
<path fill-rule="evenodd" clip-rule="evenodd" d="M10.6111 21.8608V16.456C10.6111 16.3978 10.5434 16.3647 10.4952 16.3994C7.73844 18.3885 4.6009 20.2019 1.15068 21.797C1.08092 21.8295 1.10459 21.9315 1.18197 21.9315H10.5384C10.5785 21.9315 10.6111 21.8996 10.6111 21.8608Z" fill="#00BCD4"/>
<mask id="mask0" mask-type="alpha" maskUnits="userSpaceOnUse" x="0" y="0" width="22" height="15">
<path fill-rule="evenodd" clip-rule="evenodd" d="M0 7.25238V0.205566H21.7927V14.2992H0V7.25238Z" fill="white"/>
</mask>
<g mask="url(#mask0)">
<path fill-rule="evenodd" clip-rule="evenodd" d="M21.7793 0.317211C21.8133 0.270333 21.7787 0.205566 21.7199 0.205566H7.50909C3.36206 0.205566 0 3.4482 0 7.44809V14.2284C0 14.2769 0.0490472 14.3111 0.0961917 14.2954C9.7902 11.1202 17.509 6.16633 21.7793 0.317211Z" fill="#00BCD4"/>
</g>
<path fill-rule="evenodd" clip-rule="evenodd" d="M14.5203 13.2997V21.8608C14.5203 21.8997 14.5529 21.9313 14.593 21.9313H14.8303C18.9771 21.9313 22.3389 18.6889 22.3389 14.689V2.20062C22.3389 2.12105 22.2245 2.10214 22.1977 2.17739C20.7937 6.12382 18.1636 9.87246 14.5425 13.2489C14.5284 13.2621 14.5203 13.2804 14.5203 13.2997Z" fill="#00BCD4"/>
</svg>
